# xmcd
#
# Track frame offsets: 
#        150
#        16532
#        37228
#        60617
#        82879
#        98325
#        117873
#        139248
#        156289
#        165248
#        182218
#        204077
#
# Disc length: 2889 seconds
#
# Revision: 3
# Processed by: cddbd v1.5.2PL0 Copyright (c) Steve Scherf et al.
# Submitted via: ExactAudioCopy v0.90b3
#
DISCID=890b470c
DTITLE=erja lyytinen - grip of the blues -REX
DYEAR=2008
DGENRE=Blues
TTITLE0=Broadcast
TTITLE1=Everything's Fine
TTITLE2=Grip Of The Blues
TTITLE3=Steamy Windows
TTITLE4=Inner Beauty
TTITLE5=Let It Shine
TTITLE6=Wish I Had You
TTITLE7=Unreachable
TTITLE8=Voyager's Tale
TTITLE9=Rollin' and Tumblin'
TTITLE10=Wanna Get Closer
TTITLE11=Dissatisfaction
EXTD=YEAR: 2008
EXTT0=
EXTT1=
EXTT2=
EXTT3=
EXTT4=
EXTT5=
EXTT6=
EXTT7=
EXTT8=
EXTT9=
EXTT10=
EXTT11=
PLAYORDER=
